custom-analysis
version=1
nRows=15
nColumns=42
inDegrees=no

This file contains tibia displacement and acting force.

Units are S.I. units (seconds, meters, Newtons, ...)
Angles are in degrees.

endheader
time	APT	SIT	knee_angle	aACL_R_force	pACL_R_force	aPCL_R_force	pPCL_R_force	aMCL_R_force	mMCL_R_force	pMCL_R_force	aLCL_R_force	mLCL_R_force	pLCL_R_force	aACL_R_length	pACL_R_length	aPCL_R_length	pPCL_R_length	aMCL_R_length	mMCL_R_length	pMCL_R_length	aLCL_R_length	mLCL_R_length	pLCL_R_length	aACL_R_strain	pACL_R_strain	aPCL_R_strain	pPCL_R_strain	aMCL_R_strain	mMCL_R_strain	pMCL_R_strain	aLCL_R_strain	mLCL_R_strain	pLCL_R_strain	femur_lat_meniscii_force_r	femur_lat_meniscii_torque_r	femur_med_meniscii_force_r	femur_med_meniscii_torque_r	femur_lat_tibia_force_r	femur_lat_tibia_torque_r	femur_med_tibia_force_r	femur_med_tibia_torque_r
      0.25199149	      0.00269743	      0.00010215	     30.00011112	     47.55042160	     18.72438850	     26.13293845	      8.72718284	      0.00000000	      0.00000000	      0.00000000	      0.00000000	      0.00000000	      0.00000000	      0.03342068	      0.02641501	      0.03169492	      0.03033938	      0.05721704	      0.05910456	      0.05821092	      0.05591306	      0.05266888	      0.04896383	      0.07789523	      0.04165484	      0.01928324	      0.00836158	     -0.01395828	     -0.01152195	     -0.04144851	     -0.00114580	     -0.06480480	     -0.06455284	     80.18029576	     23.45483662	     65.95432555	     21.70266259	      0.00000000	      0.00000000	     23.94983220	      0.59248257
      0.25576597	      0.00270820	      0.00009223	     30.00011112	     48.28123549	     19.34525593	     26.59298886	      8.86616520	      0.00000000	      0.00000000	      0.00000000	      0.00000000	      0.00000000	      0.00000000	      0.03344037	      0.02643582	      0.03170075	      0.03034279	      0.05720981	      0.05909674	      0.05820355	      0.05594902	      0.05270554	      0.04900026	      0.07853027	      0.04247547	      0.01947067	      0.00847479	     -0.01408285	     -0.01165281	     -0.04156972	     -0.00050348	     -0.06415402	     -0.06385693	     78.82187284	     23.04553008	     67.06829839	     22.07308026	      0.00000000	      0.00000000	     25.40327269	      0.62398810
      0.25927747	      0.00271869	      0.00008317	     30.00011112	     48.74673391	     19.72399487	     26.64668257	      8.07001808	      0.00000000	      0.00000000	      0.00000000	      7.35955855	      0.00000000	      0.00000000	      0.03345851	      0.02645488	      0.03170579	      0.03034566	      0.05720349	      0.05908986	      0.05819713	      0.05598148	      0.05273865	      0.04903317	      0.07911539	      0.04322710	      0.01963275	      0.00857042	     -0.01419177	     -0.01176779	     -0.04167558	      0.00007644	     -0.06356603	     -0.06322815	     79.13299502	     23.19515444	     69.07567368	     22.73700661	      0.00000000	      0.00000000	     27.00537256	      0.65931410
      0.26278359	      0.00272815	      0.00007756	     30.00011112	     49.33640078	     20.31115973	     26.68394739	      7.80168942	      0.00000000	      0.00000000	      0.00000000	      6.70530287	      0.00000000	      0.00000000	      0.03347469	      0.02647234	      0.03170723	      0.03034497	      0.05719384	      0.05907970	      0.05818730	      0.05600874	      0.05276647	      0.04906074	      0.07963724	      0.04391533	      0.01967920	      0.00854724	     -0.01435822	     -0.01193776	     -0.04183737	      0.00056345	     -0.06307209	     -0.06270138	     78.28469882	     22.93758042	     69.81916149	     22.98444894	      0.00000000	      0.00000000	     32.14978201	      0.78062961
      0.26628971	      0.00273635	      0.00007073	     30.00011112	     50.13924484	     21.07305404	     27.23543252	      8.72425341	      0.00000000	      0.00000000	      0.00000000	      7.22383284	      0.00000000	      0.00000000	      0.03349148	      0.02649056	      0.03170978	      0.03034546	      0.05718586	      0.05907127	      0.05817912	      0.05603575	      0.05279396	      0.04908798	      0.08017876	      0.04463392	      0.01976115	      0.00856350	     -0.01449567	     -0.01207869	     -0.04197205	      0.00104596	     -0.06258386	     -0.06218095	     75.65811672	     22.10392537	     69.23796562	     22.78645466	      0.00000000	      0.00000000	     35.70813181	      0.86403950
      0.27044365	      0.00274574	      0.00006090	     30.00011112	     50.83290888	     21.67395333	     27.74621293	      9.15521318	      0.00000000	      0.00000000	      0.00000000	      7.07413585	      0.00000000	      0.00000000	      0.03351164	      0.02651219	      0.03171466	      0.03034809	      0.05717939	      0.05906430	      0.05817244	      0.05606812	      0.05282689	      0.04912064	      0.08082877	      0.04548688	      0.01991823	      0.00865086	     -0.01460712	     -0.01219530	     -0.04208204	      0.00162415	     -0.06199915	     -0.06155701	     74.24414668	     21.70826038	     69.63670603	     22.93063615	      0.00000000	      0.00000000	     37.34659524	      0.90079682
      0.27085904	      0.00274669	      0.00005992	     30.00011112	     50.90495241	     21.73879624	     27.75457104	      9.08494737	      0.00000000	      0.00000000	      0.00000000	      6.93750343	      0.00000000	      0.00000000	      0.03351358	      0.02651426	      0.03171518	      0.03034838	      0.05717883	      0.05906369	      0.05817186	      0.05607128	      0.05283012	      0.04912384	      0.08089154	      0.04556865	      0.01993474	      0.00866080	     -0.01461678	     -0.01220551	     -0.04209156	      0.00168072	     -0.06194191	     -0.06149589	     74.26061019	     21.72119226	     69.74361823	     22.96726871	      0.00000000	      0.00000000	     37.48191044	      0.90379144
      0.27157703	      0.00274835	      0.00005824	     30.00011112	     51.02058755	     21.83963649	     27.82469228	      9.11312015	      0.00000000	      0.00000000	      0.00000000	      6.85534737	      0.00000000	      0.00000000	      0.03351693	      0.02651782	      0.03171602	      0.03034887	      0.05717788	      0.05906265	      0.05817088	      0.05607667	      0.05283561	      0.04912928	      0.08099946	      0.04570905	      0.01996202	      0.00867690	     -0.01463324	     -0.01222292	     -0.04210779	      0.00177698	     -0.06184448	     -0.06139187	     74.14520867	     21.69735604	     69.83152797	     22.99870661	      0.00000000	      0.00000000	     37.68101485	      0.90804763
      0.27381315	      0.00275352	      0.00005304	     30.00011112	     51.34861525	     22.12009039	     28.08390800	      9.29599431	      0.00000000	      0.00000000	      0.00000000	      6.69537804	      0.00000000	      0.00000000	      0.03352711	      0.02652861	      0.03171872	      0.03035047	      0.05717518	      0.05905969	      0.05816810	      0.05609315	      0.05285239	      0.04914594	      0.08132769	      0.04613430	      0.02004876	      0.00873021	     -0.01467973	     -0.01227246	     -0.04215361	      0.00207134	     -0.06154648	     -0.06107361	     73.59692005	     21.55085345	     70.07703690	     23.06318643	      0.00000000	      0.00000000	     38.16936851	      0.91782842
      0.27462837	      0.00275539	      0.00005116	     30.00011112	     51.45879697	     22.21381004	     28.17049267	      9.33687349	      0.00000000	      0.00000000	      0.00000000	      6.61795801	      0.00000000	      0.00000000	      0.03353071	      0.02653241	      0.03171973	      0.03035110	      0.05717428	      0.05905870	      0.05816717	      0.05609905	      0.05285840	      0.04915192	      0.08144388	      0.04628421	      0.02008119	      0.00875093	     -0.01469517	     -0.01228904	     -0.04216881	      0.00217682	     -0.06143966	     -0.06095948	     73.40575282	     21.50297980	     69.95121565	     23.05469880	      0.00000000	      0.00000000	     38.28940896	      0.91806024
      0.27814170	      0.00276326	      0.00004332	     30.00011112	     51.90702970	     22.60259000	     28.49129936	      9.37310296	      0.00000000	      0.00000000	      0.00000000	      6.17594468	      0.00000000	      0.00000000	      0.03354553	      0.02654800	      0.03172406	      0.03035383	      0.05717064	      0.05905466	      0.05816343	      0.05612378	      0.05288360	      0.04917695	      0.08192183	      0.04689904	      0.02022054	      0.00884190	     -0.01475789	     -0.01235659	     -0.04223039	      0.00261851	     -0.06099225	     -0.06048126	     72.82813510	     21.36272271	     70.60000750	     23.25315499	      0.00000000	      0.00000000	     38.99963284	      0.93091588
      0.28165504	      0.00277094	      0.00003616	     30.00011112	     52.42087745	     23.07616700	     28.90498035	      9.72933027	      0.00000000	      0.00000000	      0.00000000	      6.12841571	      0.00000000	      0.00000000	      0.03355945	      0.02656263	      0.03172789	      0.03035615	      0.05716697	      0.05905060	      0.05815967	      0.05614698	      0.05290726	      0.04920045	      0.08237091	      0.04747584	      0.02034351	      0.00891881	     -0.01482119	     -0.01242445	     -0.04229234	      0.00303296	     -0.06057223	     -0.06003231	     71.63508188	     21.01611422	     70.77368251	     23.31064643	      0.00000000	      0.00000000	     40.13629558	      0.95264751
      0.28200638	      0.00277167	      0.00003542	     30.00011112	     52.48123655	     23.13554496	     28.89318690	      9.62349440	      0.00000000	      0.00000000	      0.00000000	      5.97666126	      0.00000000	      0.00000000	      0.03356083	      0.02656408	      0.03172830	      0.03035641	      0.05716665	      0.05905024	      0.05815934	      0.05614927	      0.05290960	      0.04920277	      0.08241544	      0.04753306	      0.02035673	      0.00892758	     -0.01482674	     -0.01243046	     -0.04229778	      0.00307402	     -0.06053064	     -0.05998785	     71.73009616	     21.05483400	     70.86857959	     23.34486361	      0.00000000	      0.00000000	     40.24336357	      0.95468626
      0.28263255	      0.00277299	      0.00003414	     30.00011112	     52.58187102	     23.23165257	     28.93678703	      9.61058372	      0.00000000	      0.00000000	      0.00000000	      5.89028237	      0.00000000	      0.00000000	      0.03356330	      0.02656667	      0.03172897	      0.03035683	      0.05716606	      0.05904958	      0.05815873	      0.05615329	      0.05291369	      0.04920684	      0.08249503	      0.04763544	      0.02037846	      0.00894140	     -0.01483692	     -0.01244144	     -0.04230780	      0.00314571	     -0.06045800	     -0.05991024	     71.61592140	     21.02344642	     70.91909054	     23.36357173	      0.00000000	      0.00000000	     40.40980524	      0.95811047
      0.28419228	      0.00277625	      0.00003096	     30.00011112	     52.81506704	     23.45106018	     29.07770558	      9.66959807	      0.00000000	      0.00000000	      0.00000000	      5.76924248	      0.00000000	      0.00000000	      0.03356943	      0.02657313	      0.03173061	      0.03035783	      0.05716463	      0.05904800	      0.05815726	      0.05616310	      0.05292369	      0.04921677	      0.08269288	      0.04789010	      0.02043103	      0.00897460	     -0.01486146	     -0.01246793	     -0.04233198	      0.00332105	     -0.06028038	     -0.05972049	     71.26719623	     20.92313991	     70.99208807	     23.38690754	      0.00000000	      0.00000000	     40.74415546	      0.96479800
